<?xml version="1.0" encoding="UTF-8"?>
<svg xmlns="http://www.w3.org/2000/svg" xmlns:xlink="http://www.w3.org/1999/xlink" viewBox="0 0 1490.22 1749.19">
  <defs>
    <style>
      .cls-1 {
        fill: url(#linear-gradient-5);
      }

      .cls-1, .cls-2, .cls-3, .cls-4, .cls-5, .cls-6, .cls-7, .cls-8, .cls-9, .cls-10, .cls-11 {
        stroke-miterlimit: 10;
      }

      .cls-1, .cls-4, .cls-5, .cls-7, .cls-9, .cls-10, .cls-11 {
        stroke: #000;
      }

      .cls-12 {
        fill: #f2f2f2;
        font-family: MVBoli, 'MV Boli';
        font-size: 72.16px;
      }

      .cls-2 {
        fill: #fff;
      }

      .cls-2, .cls-3, .cls-6, .cls-8 {
        stroke: #c4b1b1;
        stroke-width: 8px;
      }

      .cls-3 {
        fill: none;
      }

      .cls-13 {
        fill: url(#linear-gradient-2);
      }

      .cls-13, .cls-14 {
        opacity: .55;
      }

      .cls-4 {
        fill: url(#linear-gradient-6);
      }

      .cls-5 {
        font-family: MyriadConceptRoman-Regular, 'Myriad Variable Concept';
        font-size: 158.48px;
        font-variation-settings: 'wght' 400, 'wdth' 100;
        letter-spacing: .2em;
        stroke-width: 9px;
      }

      .cls-7 {
        fill: url(#linear-gradient-4);
      }

      .cls-8 {
        fill: #c4b1b1;
      }

      .cls-9 {
        fill: url(#linear-gradient-3);
      }

      .cls-10 {
        fill: url(#linear-gradient-7);
      }

      .cls-11 {
        fill: url(#linear-gradient-8);
      }

      .cls-15 {
        fill: url(#linear-gradient);
      }

      .cls-16 {
        fill: url(#White_Black);
      }
    </style>
    <linearGradient id="linear-gradient" x1="-183.3" y1="451.92" x2="1349.48" y2="451.92" gradientTransform="translate(42.83 -22.53) rotate(2.36)" gradientUnits="userSpaceOnUse">
      <stop offset="0" stop-color="#000"/>
      <stop offset="1" stop-color="#89878a"/>
    </linearGradient>
    <linearGradient id="linear-gradient-2" x1="-176.5" y1="622.18" x2="1349.48" y2="622.18" gradientTransform="translate(42.83 -22.53) rotate(2.36)" gradientUnits="userSpaceOnUse">
      <stop offset="0" stop-color="#fff"/>
      <stop offset="0" stop-color="#000"/>
    </linearGradient>
    <linearGradient id="White_Black" data-name="White, Black" x1="554.82" y1="224.1" x2="605.04" y2="224.1" gradientTransform="translate(42.83 -22.53) rotate(2.36)" gradientUnits="userSpaceOnUse">
      <stop offset="0" stop-color="#fff"/>
      <stop offset="1" stop-color="#000"/>
    </linearGradient>
    <linearGradient id="linear-gradient-3" x1="730.23" y1="403.34" x2="790.71" y2="403.34" gradientTransform="translate(-36.78 144.08) rotate(-9.71)" gradientUnits="userSpaceOnUse">
      <stop offset="0" stop-color="#f2f2f2"/>
      <stop offset=".09" stop-color="#e8e8e8"/>
      <stop offset=".24" stop-color="#cecece"/>
      <stop offset=".42" stop-color="#a5a5a5"/>
      <stop offset=".65" stop-color="#6b6b6b"/>
      <stop offset=".89" stop-color="#222"/>
      <stop offset="1" stop-color="#000"/>
    </linearGradient>
    <linearGradient id="linear-gradient-4" x1="164.5" y1="476.62" x2="224.98" y2="476.62" xlink:href="#linear-gradient-3"/>
    <linearGradient id="linear-gradient-5" x1="798.5" y1="569.44" x2="858.99" y2="569.44" xlink:href="#linear-gradient-3"/>
    <linearGradient id="linear-gradient-6" x1="516.51" y1="250.01" x2="576.98" y2="250.01" gradientTransform="translate(20.23 215.05) rotate(-10.32) scale(.89 .78) skewX(-1.13)" xlink:href="#linear-gradient-3"/>
    <linearGradient id="linear-gradient-7" x1="447.62" y1="549.4" x2="508.09" y2="549.4" gradientTransform="translate(20.23 215.05) rotate(-10.32) scale(.89 .78) skewX(-1.13)" xlink:href="#linear-gradient-3"/>
    <linearGradient id="linear-gradient-8" x1="262.25" y1="361.06" x2="322.72" y2="361.06" gradientTransform="translate(20.23 215.05) rotate(-10.32) scale(.89 .78) skewX(-1.13)" xlink:href="#linear-gradient-3"/>
  </defs>
  <g id="Layer_12" data-name="Layer 12">
    <g>
      <g>
        <path d="M1083.31,728.46c-.86-3.55-1.71-7.11-2.56-10.67-4.33-6.82-8.62-13.67-12.85-20.52-.9-1.46-1.79-2.91-2.64-4.4-1.66-2.91-3.21-5.9-4.63-8.97-1.39-2.99-2.66-6.06-3.81-9.17-6.61-17.87-12.44-36.29-18.41-54.43-.37-1.13-.74-2.26-1.09-3.39-20.39-9.62-38.02-24.01-52.85-43.21-18.42-19.81-38.7-37.36-57.12-57.17-9.26-11.2-17.25-23.15-24-35.82-7.37-9.86-13.7-20.78-18.97-32.77-2.49-7.14-5.47-14.01-8.72-20.72-6.8-8.17-12.82-17.13-18.04-26.92-2-2.63-3.9-5.32-5.73-8.05-7.19-6.65-14.33-13.39-21.17-20.03-2.2-2.13-4.3-4.36-6.3-6.71-5.56-6.72-10.67-13.72-15.32-20.98-26.92-14.53-52.1-29.42-73.17-45.8-6.33-.93-11.48-4.99-14.63-10.61-2.32-1.87-4.25-4.26-5.72-7.01-10.04-9.82-18.55-20.22-25.08-31.41-4.33-1.99-7.75-5.99-10.09-10.39-.31-.59-.58-1.2-.82-1.81-1.24-.6-2.41-1.33-3.49-2.17-.16.3-.31.4-.44.19,0,0-.07-.25-.21-.72-2.42-2.04-4.42-4.66-5.99-7.63-1.93-3.64-2.55-7.87-2.3-12.03-.27-1.25-.42-2.53-.43-3.85-3.29-4.26-4.6-10.01-4.61-15.52,0-1.64.25-3.33.68-5.01-1.37-2.79-2.17-5.84-2.49-9.04-.16-.57-.31-1.07-.41-1.45-.88-.76-1.69-1.57-2.4-2.42-1.61-1.94-2.88-4.25-3.8-6.72-1.51-1.06-2.89-2.33-4.14-3.83-1.03-1.6-2.05-3.2-3.08-4.8-.47-.9-.86-1.83-1.18-2.77-.24-.29-.47-.59-.69-.91-3.59-5.05-7.42-9.88-11.13-14.82-11.14-13.41-22.27-24.37-25.72-20.01l-112.32,140.12c-1.39,1.69-69.28,39.63-71.12,40.67,0,0-70.58,81.89-70.58,81.9-3.68,1.46-158.7,84.29-162.07,86.82-1.26-.39-2.5-.78-3.73-1.17-4.89,11.22-9.96,22.33-15.25,33.3-17.75,36.83-43.88,67.66-69.41,98.1-31.86,37.99-67.58,71.8-99.51,109.69-1.26,1.87-2.51,3.75-3.75,5.64,8.76,11.99,17.04,24.39,26.19,36.05,1.1,1.4,2.22,2.79,3.34,4.18,16.93.14,33.85.74,50.75,1.6,7.45-6.15,15.5-11.58,24.17-16.26,22.45-14.43,46.36-21.73,71.74-21.9,25.54-5.17,50.8-2.81,75.76,7.06,27.87,13.27,57,22.94,86.64,30.07,8.45,1.26,16.92,2.36,25.41,3.29,16.46,1.81,32.96,3.05,49.49,3.77,43.53-3.36,87.07-6.57,130.74-5.7.41.02.83.05,1.24.07,24.92-4.39,49.4-11.56,74.31-16.07,6.93-1.25,13.89-2.26,20.87-3.01,11.9-1.28,23.89-2.93,35.92-4.22,12.6-9.4,26.34-16.42,41.22-21.06,23.2-12.19,47.88-17.17,74.04-14.94,3.5.48,6.99,1.05,10.47,1.69,19.24,3.51,38.6,6.88,57.7,11.27,5.88,1.35,11.71,2.96,17.47,4.8,12.03,3.84,23.78,8.67,35.26,14.17,12.45,5.97,24.78,12.13,36.98,18.55,11.71-4.27,23.47-8.41,35.25-12.68,34.12-8.56,67.86-7.09,101.2,4.4.39.2.78.4,1.16.6-1.36-5.42-2.71-10.85-4.03-16.28Z"/>
        <path class="cls-14" d="M1083.31,728.46c-.75-3.1-1.49-6.21-2.23-9.31l-17.42-3.21-89.74-26.42-44.29-15.23-86.8-50.86-45.25-16.3-43.42-37.72-30.43-38.18-31.87-26.98-24.14,5.09-39.11,31.06-53.97,28.37-48.12,31.69-74.72,23.37-78.51,18.09-64.37,13.58-131.17,12.73-66.84.17-60.3-6.71c-15.93,16.91-31.83,33.87-46.88,51.72-1.26,1.87-2.51,3.75-3.75,5.64,8.76,11.99,17.04,24.39,26.19,36.05,1.1,1.4,2.22,2.79,3.34,4.18,16.93.14,33.85.74,50.75,1.6,7.45-6.15,15.5-11.58,24.17-16.26,22.45-14.43,46.36-21.73,71.74-21.9,25.54-5.17,50.8-2.81,75.76,7.06,27.87,13.27,57,22.94,86.64,30.07,8.45,1.26,16.92,2.36,25.41,3.29,16.46,1.81,32.96,3.05,49.49,3.77,43.53-3.36,87.07-6.57,130.74-5.7.41.02.83.05,1.24.07,24.92-4.39,49.4-11.56,74.31-16.07,6.93-1.25,13.89-2.26,20.87-3.01,11.9-1.28,23.89-2.93,35.92-4.22,12.6-9.4,26.34-16.42,41.22-21.06,23.2-12.19,47.88-17.17,74.04-14.94,3.5.48,6.99,1.05,10.47,1.69,19.24,3.51,38.6,6.88,57.7,11.27,5.88,1.35,11.71,2.96,17.47,4.8,12.03,3.84,23.78,8.67,35.26,14.17,12.45,5.97,24.78,12.13,36.98,18.55,11.71-4.27,23.47-8.41,35.25-12.68,34.12-8.56,67.86-7.09,101.2,4.4.39.2.78.4,1.16.6-1.36-5.42-2.71-10.85-4.03-16.28Z"/>
        <polygon points="617.86 177.64 623.45 195.36 643.76 196.25 626.91 206.32 632.51 224.04 616.5 212.54 599.66 222.62 606.61 205.44 590.61 193.94 610.91 194.82 617.86 177.64"/>
        <path class="cls-6" d="M446.58,524.92c16.93,34.03,7.11,74.39-21.95,90.15-29.05,15.75-66.34.94-83.27-33.1-16.93-34.03-7.11-74.39,21.95-90.15,29.05-15.75,66.34-.94,83.27,33.1Z"/>
        <path class="cls-6" d="M679.9,404.24c16.93,34.03,7.11,74.39-21.95,90.15-29.05,15.75-66.34.94-83.27-33.1-16.93-34.03-7.11-74.39,21.95-90.15,29.05-15.75,66.34-.94,83.27,33.1Z"/>
        <path class="cls-6" d="M528.56,480.46c5.5,11.06,2.51,24.07-6.69,29.06-9.2,4.99-21.12.07-26.62-10.99-5.5-11.06-2.51-24.07,6.69-29.06s21.12-.07,26.62,10.99Z"/>
        <path class="cls-6" d="M528.56,480.46c5.5,11.06,2.51,24.07-6.69,29.06-9.2,4.99-21.12.07-26.62-10.99-5.5-11.06-2.51-24.07,6.69-29.06s21.12-.07,26.62,10.99Z"/>
        <path class="cls-6" d="M528.56,480.46c5.5,11.06,2.51,24.07-6.69,29.06-9.2,4.99-21.12.07-26.62-10.99-5.5-11.06-2.51-24.07,6.69-29.06s21.12-.07,26.62,10.99Z"/>
        <path class="cls-6" d="M399.87,555.27c-3.81-7.66-12-11.1-18.3-7.68-6.3,3.41-8.31,12.39-4.5,20.05,3.81,7.66,12,11.1,18.3,7.68s8.31-12.39,4.5-20.05Z"/>
        <path class="cls-6" d="M640.76,429.91c-3.81-7.66-12-11.1-18.3-7.68-6.3,3.41-8.31,12.39-4.5,20.05,3.81,7.66,12,11.1,18.3,7.68,6.3-3.41,8.31-12.39,4.5-20.05Z"/>
        <line class="cls-6" x1="389.59" y1="555.82" x2="427.97" y2="363.34"/>
        <line class="cls-6" x1="411.02" y1="358.67" x2="446.59" y2="367.11"/>
        <line class="cls-6" x1="447.57" y1="364.56" x2="447.26" y2="370.04"/>
        <line class="cls-6" x1="518.35" y1="524.98" x2="506.3" y2="455.72"/>
        <line class="cls-6" x1="513.79" y1="493.5" x2="414.42" y2="431.32"/>
        <line class="cls-6" x1="629.04" y1="436.27" x2="547.51" y2="359.15"/>
        <line class="cls-6" x1="511.9" y1="489.5" x2="547.51" y2="359.15"/>
        <path class="cls-6" d="M553.3,358.87c-.82-4.72-.24-9.15,1.35-12.53l-23.62,15.06,27.85,9.21c-2.69-2.9-4.75-7.02-5.57-11.75Z"/>
      </g>
      <g>
        <path class="cls-15" d="M1054.14,702.25c-.82-3.21-1.63-6.41-2.43-9.63-4.1-6.16-8.16-12.35-12.17-18.54-.85-1.31-1.7-2.63-2.5-3.97-1.58-2.63-3.04-5.33-4.39-8.1-1.32-2.7-2.52-5.47-3.61-8.28-6.27-16.13-11.8-32.76-17.47-49.13-.35-1.02-.7-2.04-1.04-3.06-19.27-8.71-35.93-21.73-49.96-39.07-17.42-17.9-36.59-33.76-54.01-51.67-8.76-10.12-16.32-20.91-22.71-32.35-6.97-8.91-12.97-18.77-17.96-29.6-2.37-6.45-5.19-12.65-8.27-18.7-6.43-7.38-12.13-15.48-17.07-24.31-1.89-2.37-3.69-4.8-5.42-7.27-6.79-6.01-13.55-12.11-20.01-18.11-2.08-1.93-4.06-3.94-5.96-6.07-5.26-6.08-10.09-12.39-14.5-18.95-25.43-13.15-49.23-26.63-69.15-41.44-5.98-.85-10.85-4.52-13.83-9.6-2.19-1.69-4.02-3.85-5.41-6.34-9.5-8.87-17.54-18.27-23.73-28.38-4.09-1.8-7.33-5.41-9.54-9.39-.29-.54-.55-1.08-.78-1.63-1.17-.54-2.27-1.2-3.3-1.97-.15.27-.29.36-.42.17,0,0-.07-.23-.2-.65-2.28-1.85-4.18-4.21-5.67-6.89-1.83-3.29-2.42-7.1-2.19-10.86-.26-1.13-.4-2.29-.41-3.48-3.12-3.85-4.36-9.04-4.38-14.01,0-1.48.23-3.01.63-4.52-1.29-2.52-2.06-5.27-2.36-8.15-.16-.52-.29-.97-.39-1.31-.83-.68-1.6-1.42-2.27-2.19-1.53-1.75-2.72-3.84-3.6-6.07-1.42-.96-2.73-2.11-3.92-3.46-.97-1.45-1.94-2.89-2.91-4.34-.45-.82-.81-1.65-1.11-2.5-.23-.26-.45-.54-.66-.82-3.39-4.56-7.02-8.92-10.53-13.39-10.54-12.11-21.07-22.02-24.31-18.1l-105.8,126.18c-1.31,1.52-65.33,35.62-67.07,36.55,0,0-66.49,73.73-66.5,73.74-3.47,1.31-149.67,75.73-152.85,78.01-1.19-.36-2.36-.71-3.52-1.06-4.6,10.11-9.37,20.12-14.34,30.01-16.7,33.19-41.31,60.94-65.36,88.36-30.02,34.21-63.68,64.64-93.75,98.75-1.19,1.68-2.36,3.38-3.53,5.08,8.29,10.83,16.12,22.03,24.78,32.56,1.04,1.27,2.1,2.52,3.16,3.77,15.98.16,31.95.73,47.91,1.53,7.02-5.54,14.61-10.41,22.79-14.62,21.17-12.98,43.73-19.52,67.69-19.62,24.11-4.61,47.95-2.44,71.52,6.5,26.33,12.02,53.85,20.79,81.84,27.28,7.98,1.15,15.98,2.16,23.99,3.01,15.54,1.66,31.12,2.81,46.72,3.49,41.09-2.95,82.18-5.76,123.41-4.91.39.02.78.04,1.17.06,23.52-3.92,46.61-10.34,70.12-14.36,6.54-1.12,13.1-2.01,19.7-2.68,11.23-1.13,22.55-2.59,33.9-3.74,11.88-8.45,24.84-14.76,38.87-18.92,21.88-10.95,45.17-15.4,69.87-13.34,3.31.44,6.6.96,9.89,1.54,18.17,3.2,36.45,6.28,54.49,10.27,5.55,1.23,11.05,2.69,16.5,4.36,11.36,3.48,22.46,7.87,33.31,12.85,11.76,5.4,23.41,10.99,34.94,16.8,11.05-3.83,22.14-7.54,33.25-11.37,32.2-7.66,64.05-6.27,95.54,4.15.37.18.73.36,1.1.55-1.3-4.89-2.58-9.79-3.83-14.69Z"/>
        <path class="cls-13" d="M1054.14,702.25c-.72-2.8-1.42-5.6-2.12-8.4l-16.45-2.93-84.76-23.99-41.84-13.82-82.02-46.03-42.74-14.78-41.05-34.1-28.79-34.49-30.13-24.39-22.78,4.55-36.87,27.94-50.9,25.49-45.37,28.5-70.5,20.94-74.08,16.17-60.74,12.13-123.8,11.24-63.09.03-56.93-6.16c-15.01,15.23-29.99,30.49-44.17,46.56-1.19,1.68-2.36,3.38-3.53,5.08,8.29,10.83,16.12,22.03,24.78,32.56,1.04,1.27,2.1,2.52,3.16,3.77,15.98.16,31.95.73,47.91,1.53,7.02-5.54,14.61-10.41,22.79-14.62,21.17-12.98,43.73-19.52,67.69-19.62,24.11-4.61,47.95-2.44,71.52,6.5,26.33,12.02,53.85,20.79,81.84,27.28,7.98,1.15,15.98,2.16,23.99,3.01,15.54,1.66,31.12,2.81,46.72,3.49,41.09-2.95,82.18-5.76,123.41-4.91.39.02.78.04,1.17.06,23.52-3.92,46.61-10.34,70.12-14.36,6.54-1.12,13.1-2.01,19.7-2.68,11.23-1.13,22.55-2.59,33.9-3.74,11.88-8.45,24.84-14.76,38.87-18.92,21.88-10.95,45.17-15.4,69.87-13.34,3.31.44,6.6.96,9.89,1.54,18.17,3.2,36.45,6.28,54.49,10.27,5.55,1.23,11.05,2.69,16.5,4.36,11.36,3.48,22.46,7.87,33.31,12.85,11.76,5.4,23.41,10.99,34.94,16.8,11.05-3.83,22.14-7.54,33.25-11.37,32.2-7.66,64.05-6.27,95.54,4.15.37.18.73.36,1.1.55-1.3-4.89-2.58-9.79-3.83-14.69Z"/>
        <polygon class="cls-16" points="613.87 204.59 619.18 220.59 638.34 221.42 622.46 230.48 627.77 246.48 612.64 236.07 596.76 245.13 603.29 229.65 588.17 219.24 607.33 220.08 613.87 204.59"/>
        <ellipse class="cls-3" cx="403.13" cy="543.14" rx="55.84" ry="62.76" transform="translate(-210.27 258.1) rotate(-28.49)"/>
        <ellipse class="cls-3" cx="623.19" cy="434.72" rx="55.84" ry="62.76" transform="translate(-131.9 349.94) rotate(-28.49)"/>
        <ellipse class="cls-3" cx="514.35" cy="485.68" rx="17.68" ry="20.4" transform="translate(-168.79 301.95) rotate(-28.3)"/>
        <ellipse class="cls-3" cx="514.35" cy="485.68" rx="17.68" ry="20.4" transform="translate(-168.79 301.95) rotate(-28.3)"/>
        <ellipse class="cls-3" cx="514.35" cy="485.68" rx="17.68" ry="20.4" transform="translate(-168.79 301.95) rotate(-28.3)"/>
        <ellipse class="cls-8" cx="397.96" cy="550.35" rx="12.1" ry="14.12" transform="translate(-213.04 253.8) rotate(-28.24)"/>
        <ellipse class="cls-8" cx="625.14" cy="437.73" rx="12.1" ry="14.12" transform="translate(-132.71 347.89) rotate(-28.24)"/>
        <line class="cls-2" x1="399.01" y1="545.27" x2="434.92" y2="371.74"/>
        <line class="cls-2" x1="418.91" y1="367.5" x2="452.5" y2="375.17"/>
        <line class="cls-2" x1="453.42" y1="372.88" x2="453.14" y2="377.82"/>
        <line class="cls-2" x1="520.5" y1="517.69" x2="509.01" y2="455.2"/>
        <line class="cls-2" x1="516.15" y1="489.29" x2="422.24" y2="433.03"/>
        <line class="cls-2" x1="624.84" y1="437.88" x2="547.75" y2="368.18"/>
        <line class="cls-2" x1="514.35" y1="485.68" x2="547.75" y2="368.18"/>
        <path class="cls-6" d="M553.22,367.94c-.78-4.26-.24-8.25,1.25-11.3l-22.28,13.54,26.3,8.36c-2.54-2.62-4.5-6.34-5.28-10.6Z"/>
      </g>
      <polygon class="cls-9" points="787.8 443.8 775.25 423.35 752.91 429.47 767.45 410.54 755.03 389.99 776.57 398.74 791.23 379.92 790.01 404.26 811.48 413.18 789.19 419.47 787.8 443.8"/>
      <polygon class="cls-7" points="242.54 611.47 229.98 591.02 207.65 597.14 222.18 578.21 209.77 557.66 231.3 566.41 245.97 547.59 244.74 571.93 266.22 580.85 243.93 587.14 242.54 611.47"/>
      <polygon class="cls-1" points="883.12 596.01 870.56 575.56 848.23 581.68 862.76 562.75 850.35 542.2 871.88 550.95 886.55 532.13 885.32 556.47 906.8 565.39 884.51 571.68 883.12 596.01"/>
      <polygon class="cls-4" points="532.28 344.84 521.75 329.1 501.97 334.54 515.22 319.25 504.81 303.43 523.53 309.72 536.88 294.51 535.2 313.68 553.86 320.1 534.11 325.67 532.28 344.84"/>
      <polygon class="cls-10" points="508.95 586.47 498.42 570.74 478.64 576.17 491.88 560.88 481.48 545.07 500.19 551.35 513.55 536.14 511.87 555.32 530.52 561.73 510.77 567.3 508.95 586.47"/>
      <polygon class="cls-11" points="324.48 470.71 313.95 454.97 294.17 460.4 307.41 445.11 297.01 429.3 315.72 435.59 329.08 420.38 327.4 439.55 346.06 445.97 326.31 451.54 324.48 470.71"/>
      <text/>
      <text class="cls-12" transform="translate(420.5 694.28) rotate(-24.88) scale(.89 1.01) skewX(.39)"><tspan x="0" y="0">B</tspan></text>
      <text class="cls-12" transform="translate(472.63 671.64) rotate(-19.15) scale(.89 1.01) skewX(.66)"><tspan x="0" y="0">I</tspan></text>
      <text class="cls-12" transform="translate(507.41 659.84) rotate(-12.92) scale(.89 1.01) skewX(.93)"><tspan x="0" y="0">K</tspan></text>
      <text class="cls-12" transform="translate(568.04 647.32) rotate(-5.24) scale(.89 1.01) skewX(1.19)"><tspan x="0" y="0">E</tspan></text>
      <text class="cls-12" transform="translate(624.39 643.18) rotate(2.59) scale(.89 1) skewX(1.38)"><tspan x="0" y="0">K</tspan></text>
      <text class="cls-12" transform="translate(686.67 647.76) rotate(9.14) scale(.9 1) skewX(1.45)"><tspan x="0" y="0">I</tspan></text>
      <text class="cls-12" transform="translate(723.1 653.74) rotate(16.01) scale(.9 1) skewX(1.45)"><tspan x="0" y="0">N</tspan></text>
      <text class="cls-12" transform="translate(788.91 674.25) rotate(24.48) scale(.9 1) skewX(1.33)"><tspan x="0" y="0">G</tspan></text>
    </g>
  </g>
  <g id="Layer_11" data-name="Layer 11">
    <text class="cls-5" transform="translate(65.71 902.9) scale(1.2 1)"><tspan x="0" y="0">BORDERS</tspan></text>
  </g>
</svg>